<?xml version="1.0" encoding="UTF-8" standalone="no"?>
<!DOCTYPE svg PUBLIC "-//W3C//DTD SVG 1.1//EN"
 "http://www.w3.org/Graphics/SVG/1.1/DTD/svg11.dtd">
<!-- Generated by graphviz version 2.40.1 (20161225.0304)
 -->
<!-- Title: CONSORT Pages: 1 -->
<svg width="861pt" height="744pt"
 viewBox="0.00 0.00 860.51 744.00" xmlns="http://www.w3.org/2000/svg" xmlns:xlink="http://www.w3.org/1999/xlink">
<g id="graph0" class="graph" transform="scale(1 1) rotate(0) translate(4 740)">
<title>CONSORT</title>
<polygon fill="#ffffff" stroke="transparent" points="-4,4 -4,-740 856.515,-740 856.515,4 -4,4"/>
<!-- total -->
<g id="node1" class="node">
<title>total</title>
<polygon fill="#e8f4fa" stroke="#000000" points="815.2476,-736 661.6534,-736 661.6534,-700 815.2476,-700 815.2476,-736"/>
<text text-anchor="middle" x="738.4505" y="-721" font-family="Arial" font-size="10.00" fill="#000000">NHANES 2007&#45;2018 (6 cycles)</text>
<text text-anchor="middle" x="738.4505" y="-709" font-family="Arial" font-size="10.00" fill="#000000">N = 59,842</text>
</g>
<!-- female -->
<g id="node2" class="node">
<title>female</title>
<polygon fill="#e8f4fa" stroke="#000000" points="734.4002,-664 598.5008,-664 598.5008,-628 734.4002,-628 734.4002,-664"/>
<text text-anchor="middle" x="666.4505" y="-649" font-family="Arial" font-size="10.00" fill="#000000">Women (RIAGENDR == 2)</text>
<text text-anchor="middle" x="666.4505" y="-637" font-family="Arial" font-size="10.00" fill="#000000">N = 30,213</text>
</g>
<!-- total&#45;&gt;female -->
<g id="edge1" class="edge">
<title>total&#45;&gt;female</title>
<path fill="none" stroke="#000000" d="M697.8635,-699.8314C697.8635,-699.8314 697.8635,-674.4133 697.8635,-674.4133"/>
<polygon fill="#000000" stroke="#000000" points="701.3636,-674.4132 697.8635,-664.4133 694.3636,-674.4133 701.3636,-674.4132"/>
</g>
<!-- e1 -->
<g id="node10" class="node">
<title>e1</title>
<polygon fill="#e8f4fa" stroke="transparent" points="852.5796,-664 770.3214,-664 770.3214,-628 852.5796,-628 852.5796,-664"/>
<text text-anchor="middle" x="811.4505" y="-649" font-family="Arial" font-size="10.00" fill="#000000">Excluded: men</text>
<text text-anchor="middle" x="811.4505" y="-637" font-family="Arial" font-size="10.00" fill="#000000">29,629</text>
</g>
<!-- total&#45;&gt;e1 -->
<g id="edge2" class="edge">
<title>total&#45;&gt;e1</title>
<path fill="none" stroke="#000000" d="M792.8675,-699.8314C792.8675,-699.8314 792.8675,-674.4133 792.8675,-674.4133"/>
<polygon fill="#000000" stroke="#000000" points="796.3676,-674.4132 792.8675,-664.4133 789.3676,-674.4133 796.3676,-674.4132"/>
</g>
<!-- adult -->
<g id="node3" class="node">
<title>adult</title>
<polygon fill="#e8f4fa" stroke="#000000" points="639.1408,-592 573.7602,-592 573.7602,-556 639.1408,-556 639.1408,-592"/>
<text text-anchor="middle" x="606.4505" y="-577" font-family="Arial" font-size="10.00" fill="#000000">Age &gt;= 20</text>
<text text-anchor="middle" x="606.4505" y="-565" font-family="Arial" font-size="10.00" fill="#000000">N = 17,907</text>
</g>
<!-- female&#45;&gt;adult -->
<g id="edge3" class="edge">
<title>female&#45;&gt;adult</title>
<path fill="none" stroke="#000000" d="M618.8858,-627.8314C618.8858,-627.8314 618.8858,-602.4133 618.8858,-602.4133"/>
<polygon fill="#000000" stroke="#000000" points="622.3858,-602.4132 618.8858,-592.4133 615.3858,-602.4133 622.3858,-602.4132"/>
</g>
<!-- e2 -->
<g id="node11" class="node">
<title>e2</title>
<polygon fill="#e8f4fa" stroke="transparent" points="777.3246,-592 675.5764,-592 675.5764,-556 777.3246,-556 777.3246,-592"/>
<text text-anchor="middle" x="726.4505" y="-577" font-family="Arial" font-size="10.00" fill="#000000">Excluded: age &lt; 20</text>
<text text-anchor="middle" x="726.4505" y="-565" font-family="Arial" font-size="10.00" fill="#000000">12,306</text>
</g>
<!-- female&#45;&gt;e2 -->
<g id="edge4" class="edge">
<title>female&#45;&gt;e2</title>
<path fill="none" stroke="#000000" d="M704.8443,-627.8314C704.8443,-627.8314 704.8443,-602.4133 704.8443,-602.4133"/>
<polygon fill="#000000" stroke="#000000" points="708.3443,-602.4132 704.8443,-592.4133 701.3443,-602.4133 708.3443,-602.4132"/>
</g>
<!-- pregnant -->
<g id="node4" class="node">
<title>pregnant</title>
<polygon fill="#e8f4fa" stroke="#000000" points="593.3745,-520 443.5265,-520 443.5265,-484 593.3745,-484 593.3745,-520"/>
<text text-anchor="middle" x="518.4505" y="-505" font-family="Arial" font-size="10.00" fill="#000000">Ever pregnant (RHQ160 &gt;= 1)</text>
<text text-anchor="middle" x="518.4505" y="-493" font-family="Arial" font-size="10.00" fill="#000000">N = 12,952</text>
</g>
<!-- adult&#45;&gt;pregnant -->
<g id="edge5" class="edge">
<title>adult&#45;&gt;pregnant</title>
<path fill="none" stroke="#000000" d="M583.634,-555.8314C583.634,-555.8314 583.634,-530.4133 583.634,-530.4133"/>
<polygon fill="#000000" stroke="#000000" points="587.1341,-530.4132 583.634,-520.4133 580.1341,-530.4133 587.1341,-530.4132"/>
</g>
<!-- e3 -->
<g id="node12" class="node">
<title>e3</title>
<polygon fill="#e8f4fa" stroke="transparent" points="759.3795,-520 629.5215,-520 629.5215,-484 759.3795,-484 759.3795,-520"/>
<text text-anchor="middle" x="694.4505" y="-505" font-family="Arial" font-size="10.00" fill="#000000">Excluded: never pregnant</text>
<text text-anchor="middle" x="694.4505" y="-493" font-family="Arial" font-size="10.00" fill="#000000">4,955</text>
</g>
<!-- adult&#45;&gt;e3 -->
<g id="edge6" class="edge">
<title>adult&#45;&gt;e3</title>
<path fill="none" stroke="#000000" d="M634.2658,-555.8314C634.2658,-555.8314 634.2658,-530.4133 634.2658,-530.4133"/>
<polygon fill="#000000" stroke="#000000" points="637.7658,-530.4132 634.2658,-520.4133 630.7658,-530.4133 637.7658,-530.4132"/>
</g>
<!-- gdm -->
<g id="node5" class="node">
<title>gdm</title>
<polygon fill="#e8f4fa" stroke="#000000" points="494.0134,-448 382.8876,-448 382.8876,-404 494.0134,-404 494.0134,-448"/>
<text text-anchor="middle" x="438.4505" y="-435" font-family="Arial" font-size="10.00" fill="#000000">GDM history reported</text>
<text text-anchor="middle" x="438.4505" y="-423" font-family="Arial" font-size="10.00" fill="#000000">(RHQ162 in {1,2,3})</text>
<text text-anchor="middle" x="438.4505" y="-411" font-family="Arial" font-size="10.00" fill="#000000">N = 12,923</text>
</g>
<!-- pregnant&#45;&gt;gdm -->
<g id="edge7" class="edge">
<title>pregnant&#45;&gt;gdm</title>
<path fill="none" stroke="#000000" d="M468.86,-483.9891C468.86,-483.9891 468.86,-458.2282 468.86,-458.2282"/>
<polygon fill="#000000" stroke="#000000" points="472.3601,-458.2282 468.86,-448.2282 465.3601,-458.2282 472.3601,-458.2282"/>
</g>
<!-- e4 -->
<g id="node13" class="node">
<title>e4</title>
<polygon fill="#e8f4fa" stroke="transparent" points="667.0886,-444 529.8124,-444 529.8124,-408 667.0886,-408 667.0886,-444"/>
<text text-anchor="middle" x="598.4505" y="-429" font-family="Arial" font-size="10.00" fill="#000000">Excluded: GDM unreported</text>
<text text-anchor="middle" x="598.4505" y="-417" font-family="Arial" font-size="10.00" fill="#000000">29</text>
</g>
<!-- pregnant&#45;&gt;e4 -->
<g id="edge8" class="edge">
<title>pregnant&#45;&gt;e4</title>
<path fill="none" stroke="#000000" d="M561.647,-483.9891C561.647,-483.9891 561.647,-454.145 561.647,-454.145"/>
<polygon fill="#000000" stroke="#000000" points="565.1471,-454.145 561.647,-444.145 558.1471,-454.1451 565.1471,-454.145"/>
</g>
<!-- diet -->
<g id="node6" class="node">
<title>diet</title>
<polygon fill="#e8f4fa" stroke="#000000" points="425.7157,-368 277.1853,-368 277.1853,-324 425.7157,-324 425.7157,-368"/>
<text text-anchor="middle" x="351.4505" y="-355" font-family="Arial" font-size="10.00" fill="#000000">Diet kcal + SLQ valid</text>
<text text-anchor="middle" x="351.4505" y="-343" font-family="Arial" font-size="10.00" fill="#000000">(500 &lt;= DR1TKCAL &lt;= 5000)</text>
<text text-anchor="middle" x="351.4505" y="-331" font-family="Arial" font-size="10.00" fill="#000000">N = 12,180</text>
</g>
<!-- gdm&#45;&gt;diet -->
<g id="edge9" class="edge">
<title>gdm&#45;&gt;diet</title>
<path fill="none" stroke="#000000" d="M404.1263,-403.7155C404.1263,-403.7155 404.1263,-378.165 404.1263,-378.165"/>
<polygon fill="#000000" stroke="#000000" points="407.6263,-378.1649 404.1263,-368.165 400.6263,-378.165 407.6263,-378.1649"/>
</g>
<!-- e5 -->
<g id="node14" class="node">
<title>e5</title>
<polygon fill="#e8f4fa" stroke="transparent" points="589.4195,-364 461.4815,-364 461.4815,-328 589.4195,-328 589.4195,-364"/>
<text text-anchor="middle" x="525.4505" y="-349" font-family="Arial" font-size="10.00" fill="#000000">Excluded: kcal+SLQ filter</text>
<text text-anchor="middle" x="525.4505" y="-337" font-family="Arial" font-size="10.00" fill="#000000">743</text>
</g>
<!-- gdm&#45;&gt;e5 -->
<g id="edge10" class="edge">
<title>gdm&#45;&gt;e5</title>
<path fill="none" stroke="#000000" d="M477.8488,-403.7155C477.8488,-403.7155 477.8488,-374.1267 477.8488,-374.1267"/>
<polygon fill="#000000" stroke="#000000" points="481.3488,-374.1266 477.8488,-364.1267 474.3488,-374.1267 481.3488,-374.1266"/>
</g>
<!-- sleep -->
<g id="node7" class="node">
<title>sleep</title>
<polygon fill="#e8f4fa" stroke="#000000" points="336.2676,-288 202.6334,-288 202.6334,-252 336.2676,-252 336.2676,-288"/>
<text text-anchor="middle" x="269.4505" y="-273" font-family="Arial" font-size="10.00" fill="#000000">Sleep dims &gt;= 3 evaluable</text>
<text text-anchor="middle" x="269.4505" y="-261" font-family="Arial" font-size="10.00" fill="#000000">N = 12,165</text>
</g>
<!-- diet&#45;&gt;sleep -->
<g id="edge11" class="edge">
<title>diet&#45;&gt;sleep</title>
<path fill="none" stroke="#000000" d="M306.8385,-323.6086C306.8385,-323.6086 306.8385,-298.3975 306.8385,-298.3975"/>
<polygon fill="#000000" stroke="#000000" points="310.3386,-298.3974 306.8385,-288.3975 303.3386,-298.3975 310.3386,-298.3974"/>
</g>
<!-- e6 -->
<g id="node15" class="node">
<title>e6</title>
<polygon fill="#e8f4fa" stroke="transparent" points="496.592,-288 372.309,-288 372.309,-252 496.592,-252 496.592,-288"/>
<text text-anchor="middle" x="434.4505" y="-273" font-family="Arial" font-size="10.00" fill="#000000">Excluded: &lt;3 sleep dims</text>
<text text-anchor="middle" x="434.4505" y="-261" font-family="Arial" font-size="10.00" fill="#000000">15</text>
</g>
<!-- diet&#45;&gt;e6 -->
<g id="edge12" class="edge">
<title>diet&#45;&gt;e6</title>
<path fill="none" stroke="#000000" d="M398.8565,-323.6086C398.8565,-323.6086 398.8565,-298.3975 398.8565,-298.3975"/>
<polygon fill="#000000" stroke="#000000" points="402.3566,-298.3974 398.8565,-288.3975 395.3566,-298.3975 402.3566,-298.3974"/>
</g>
<!-- cov -->
<g id="node8" class="node">
<title>cov</title>
<polygon fill="#e8f4fa" stroke="#000000" points="246.5666,-216 124.3344,-216 124.3344,-172 246.5666,-172 246.5666,-216"/>
<text text-anchor="middle" x="185.4505" y="-203" font-family="Arial" font-size="10.00" fill="#000000">Mortality linkage eligible</text>
<text text-anchor="middle" x="185.4505" y="-191" font-family="Arial" font-size="10.00" fill="#000000">(ELIGSTAT == 1)</text>
<text text-anchor="middle" x="185.4505" y="-179" font-family="Arial" font-size="10.00" fill="#000000">N = 12,136</text>
</g>
<!-- sleep&#45;&gt;cov -->
<g id="edge13" class="edge">
<title>sleep&#45;&gt;cov</title>
<path fill="none" stroke="#000000" d="M224.5253,-251.9891C224.5253,-251.9891 224.5253,-226.2282 224.5253,-226.2282"/>
<polygon fill="#000000" stroke="#000000" points="228.0253,-226.2282 224.5253,-216.2282 221.0253,-226.2282 228.0253,-226.2282"/>
</g>
<!-- e7 -->
<g id="node16" class="node">
<title>e7</title>
<polygon fill="#e8f4fa" stroke="transparent" points="424.5736,-212 282.3274,-212 282.3274,-176 424.5736,-176 424.5736,-212"/>
<text text-anchor="middle" x="353.4505" y="-197" font-family="Arial" font-size="10.00" fill="#000000">Excluded: mortality ineligible</text>
<text text-anchor="middle" x="353.4505" y="-185" font-family="Arial" font-size="10.00" fill="#000000">29</text>
</g>
<!-- sleep&#45;&gt;e7 -->
<g id="edge14" class="edge">
<title>sleep&#45;&gt;e7</title>
<path fill="none" stroke="#000000" d="M309.374,-251.9891C309.374,-251.9891 309.374,-222.145 309.374,-222.145"/>
<polygon fill="#000000" stroke="#000000" points="312.8741,-222.145 309.374,-212.145 305.8741,-222.1451 312.8741,-222.145"/>
</g>
<!-- final -->
<g id="node9" class="node">
<title>final</title>
<polygon fill="#ffe5a0" stroke="#000000" stroke-width="2" points="169.2397,-136 35.6613,-136 35.6613,-92 169.2397,-92 169.2397,-136"/>
<text text-anchor="middle" x="102.4505" y="-123" font-family="Arial" font-size="10.00" fill="#000000">Final analytic sample</text>
<text text-anchor="middle" x="102.4505" y="-111" font-family="Arial" font-size="10.00" fill="#000000">(core covariates complete)</text>
<text text-anchor="middle" x="102.4505" y="-99" font-family="Arial" font-size="10.00" fill="#000000">N = 10,931</text>
</g>
<!-- cov&#45;&gt;final -->
<g id="edge15" class="edge">
<title>cov&#45;&gt;final</title>
<path fill="none" stroke="#000000" d="M146.8688,-171.7155C146.8688,-171.7155 146.8688,-146.165 146.8688,-146.165"/>
<polygon fill="#000000" stroke="#000000" points="150.3688,-146.1649 146.8688,-136.165 143.3688,-146.165 150.3688,-146.1649"/>
</g>
<!-- e8 -->
<g id="node17" class="node">
<title>e8</title>
<polygon fill="#e8f4fa" stroke="transparent" points="333.7437,-132 205.1573,-132 205.1573,-96 333.7437,-96 333.7437,-132"/>
<text text-anchor="middle" x="269.4505" y="-117" font-family="Arial" font-size="10.00" fill="#000000">Excluded: missing covars</text>
<text text-anchor="middle" x="269.4505" y="-105" font-family="Arial" font-size="10.00" fill="#000000">1,205</text>
</g>
<!-- cov&#45;&gt;e8 -->
<g id="edge16" class="edge">
<title>cov&#45;&gt;e8</title>
<path fill="none" stroke="#000000" d="M225.7813,-171.7155C225.7813,-171.7155 225.7813,-142.1267 225.7813,-142.1267"/>
<polygon fill="#000000" stroke="#000000" points="229.2813,-142.1266 225.7813,-132.1267 222.2813,-142.1267 229.2813,-142.1266"/>
</g>
<!-- outcomes -->
<g id="node18" class="node">
<title>outcomes</title>
<polygon fill="#d4efdf" stroke="#000000" points="204.8515,-56 .0495,-56 .0495,0 204.8515,0 204.8515,-56"/>
<text text-anchor="middle" x="102.4505" y="-43" font-family="Arial" font-size="10.00" fill="#000000">Outcomes:</text>
<text text-anchor="middle" x="102.4505" y="-31" font-family="Arial" font-size="10.00" fill="#000000">&#45; All&#45;cause death: 894 (8.2%)</text>
<text text-anchor="middle" x="102.4505" y="-19" font-family="Arial" font-size="10.00" fill="#000000">&#45; CVD death: 251 (2.3%)</text>
<text text-anchor="middle" x="102.4505" y="-7" font-family="Arial" font-size="10.00" fill="#000000">&#45; Composite CVD (self&#45;rep): 1,098 (10.0%)</text>
</g>
<!-- final&#45;&gt;outcomes -->
<g id="edge17" class="edge">
<title>final&#45;&gt;outcomes</title>
<path fill="none" stroke="#000000" d="M102.4505,-91.8529C102.4505,-91.8529 102.4505,-66.2508 102.4505,-66.2508"/>
<polygon fill="#000000" stroke="#000000" points="105.9506,-66.2508 102.4505,-56.2508 98.9506,-66.2508 105.9506,-66.2508"/>
</g>
</g>
</svg>

